<?xml version="1.0" encoding="UTF-8"?>
<svg id="design" xmlns="http://www.w3.org/2000/svg" version="1.1" viewBox="0 0 566.93 566.93">
  <!-- Generator: Adobe Illustrator 30.4.0, SVG Export Plug-In . SVG Version: 2.1.4 Build 226)  -->
  <defs>
    <style>
      .st0 {
        fill: #231815;
      }
    </style>
  </defs>
  <path class="st0" d="M458.73,338.34c-1.92,7.08-8.7,10.92-15.64,9-7.08-1.92-10.92-8.56-9-15.49,1.92-7.08,8.56-11.07,15.49-9.15,7.08,1.92,11.07,8.7,9.15,15.64Z"/>
  <path class="st0" d="M388.75,256.62c-9.68-2.3-18.46-.21-26.01,7.3l9.18-39.58-11.09-2.56-4.53-1.03-23.05,100.65,15.49,3.57,7.77-33.95c3.83-16.53,11.98-23.62,24.34-20.82,9.53,2.16,13.49,9.69,10.95,21.01l-9.56,41.39,15.93,3.55,9.94-43.33c4.46-19.36-2.51-32.39-19.33-36.21Z"/>
  <path class="st0" d="M285.52,266.22c20.46,2.49,29.43,13.3,27.05,32.4l-5.7,46.39-15.77-1.96,1.11-10.14c-5.88,6.94-14.5,10.23-24.66,8.98-14.85-1.79-23.65-12.47-21.97-25.97,1.65-12.6,11.61-20.26,26.27-19.78l20.61.38c3.15.15,4.36-.76,4.66-2.89l.23-1.52c.62-6.2-4.15-10.44-13.41-11.67-9.99-1.13-17.26,2.28-20.01,9.22l-11.64-9.69c5.18-10.86,16.71-15.76,33.23-13.76ZM273.84,309.28c-6.86-.08-11.07,2.9-11.81,8.21-.66,5.9,3.36,10.11,10.93,10.98,11.08,1.42,20.56-5.27,21.73-14.98l.45-4.23-21.3.02Z"/>
  <path class="st0" d="M131.33,274.68l-12.28-9.35c26.11-34.28,66.79-62.74,114.54-80.12,47.76-17.38,97.21-21.74,139.25-12.25l-3.39,15.05c-39.19-8.84-85.56-4.69-130.58,11.7-45.01,16.38-83.21,43.01-107.54,74.97Z"/>
  <polygon class="st0" points="206.16 289.84 197.84 338.78 165.77 300.96 152.24 311.03 194.63 358.87 187.86 398.87 203.42 398.87 221.81 289.84 206.16 289.84"/>
</svg>