<?xml version="1.0" encoding="UTF-8"?>
<svg id="design" xmlns="http://www.w3.org/2000/svg" version="1.1" viewBox="0 0 566.93 566.93">
  <!-- Generator: Adobe Illustrator 30.4.0, SVG Export Plug-In . SVG Version: 2.1.4 Build 226)  -->
  <defs>
    <style>
      .st0 {
        fill: #231815;
      }
    </style>
  </defs>
  <g>
    <path class="st0" d="M416.06,328.28c-1.89,6.99-8.59,10.77-15.43,8.88-6.99-1.89-10.77-8.44-8.88-15.29,1.89-6.99,8.44-10.92,15.29-9.02,6.99,1.89,10.92,8.59,9.02,15.43Z"/>
    <path class="st0" d="M347.01,247.65c-9.55-2.27-18.22-.21-25.67,7.2l9.06-39.05-10.95-2.53-4.47-1.02-22.75,99.3,15.28,3.52,7.67-33.49c3.77-16.31,11.82-23.3,24.02-20.54,9.4,2.13,13.31,9.57,10.81,20.73l-9.44,40.84,15.71,3.51,9.8-42.75c4.4-19.1-2.48-31.96-19.07-35.72Z"/>
    <path class="st0" d="M245.16,257.12c20.19,2.45,29.04,13.12,26.69,31.97l-5.62,45.77-15.56-1.93,1.09-10c-5.8,6.84-14.31,10.1-24.33,8.86-14.65-1.76-23.34-12.3-21.68-25.62,1.63-12.43,11.45-19.99,25.92-19.52l20.34.38c3.11.15,4.31-.75,4.6-2.85l.23-1.5c.61-6.11-4.09-10.3-13.23-11.52-9.86-1.11-17.03,2.25-19.74,9.1l-11.49-9.56c5.11-10.71,16.48-15.55,32.78-13.58ZM233.63,299.61c-6.77-.08-10.92,2.86-11.65,8.1-.65,5.82,3.31,9.97,10.79,10.83,10.93,1.4,20.29-5.2,21.44-14.78l.44-4.18h-21.02Z"/>
    <path class="st0" d="M93.03,265.47l-12.11-9.22c25.76-33.83,65.9-61.9,113.02-79.05,47.12-17.15,95.91-21.45,137.39-12.09l-3.35,14.85c-38.67-8.72-84.42-4.62-128.83,11.54-44.41,16.17-82.1,42.44-106.11,73.97Z"/>
    <polygon class="st0" points="166.86 280.43 158.65 328.71 127.01 291.4 113.66 301.34 155.49 348.54 148.81 388.01 164.16 388.01 182.3 280.43 166.86 280.43"/>
  </g>
  <g>
    <path class="st0" d="M218.14,374.06c4.16,0,6.98,1.97,8.19,5.44l-3.64,1.77c-.59-2.33-2.2-3.7-4.55-3.7-3.44,0-5.54,2.82-5.54,7.83s2.1,7.87,5.54,7.87c2.36,0,3.96-1.44,4.55-3.74l3.64,1.74c-1.21,3.51-4.03,5.47-8.19,5.47-5.77,0-9.9-4.13-9.9-11.34s4.13-11.34,9.9-11.34Z"/>
    <path class="st0" d="M233.83,382.62c.95-2.06,2.85-3.14,5.15-3.14,3.01,0,5.15,1.9,5.15,5.34v11.54h-4.07v-10.42c0-1.83-.82-3.05-2.69-3.05s-3.54,1.18-3.54,4.23v9.24h-4.03v-23.67h4.03v9.93Z"/>
    <path class="st0" d="M258.8,391.11l3.34,1.08c-.89,3.21-3.64,4.55-6.69,4.55-4.75,0-7.77-3.08-7.77-8.52s3.02-8.75,7.8-8.75c4.49,0,6.82,3.14,6.82,7.14,0,.85-.16,1.74-.33,2.2h-10.42c.1,3.05,1.54,4.85,3.93,4.85,1.67,0,2.85-.75,3.31-2.55ZM258.44,386.58c.03-.26.03-.59.03-.82,0-1.84-1.05-3.38-3.05-3.38-2.16,0-3.54,1.57-3.8,4.2h6.82Z"/>
    <path class="st0" d="M272.69,379.47c3.74,0,6.2,2.13,6.52,5.31l-3.54.75c-.13-1.67-1.12-3.01-2.95-3.01-2.49,0-3.74,2.26-3.74,5.6s1.25,5.57,3.77,5.57c1.7,0,2.79-1.24,2.95-3.05l3.57.95c-.56,3.21-3.01,5.15-6.52,5.15-4.75,0-7.8-3.24-7.8-8.62s3.05-8.65,7.74-8.65Z"/>
    <path class="st0" d="M298.11,396.35h-4.72l-5.38-7.28h-1.21v7.28h-4.03v-23.67h4.03v13.41h1.28l4.88-6.23h4.56l-6,7.57,6.59,8.91Z"/>
    <path class="st0" d="M310.52,377.47c-1.38,0-2.52-.95-2.52-2.42s1.15-2.42,2.52-2.42,2.56.95,2.56,2.42-1.18,2.42-2.56,2.42ZM312.55,379.86v16.49h-4.03v-16.49h4.03Z"/>
    <path class="st0" d="M321.2,383.04c.85-2.29,2.85-3.57,5.38-3.57,3.01,0,5.15,1.9,5.15,5.34v11.54h-4.07v-10.42c0-1.83-.82-3.05-2.69-3.05s-3.54,1.18-3.54,4.23v9.24h-4.03v-16.49h3.31l.49,3.18Z"/>
    <path class="st0" d="M335.48,401.24v-1.87c2.13-.13,3.41-1.64,3.41-3.18,0-.2-.03-.4-.1-.49-.2.1-.49.2-.75.2-1.12,0-2.13-.75-2.13-2.2s1.08-2.36,2.39-2.36c1.74,0,3.08,1.44,3.08,3.64,0,3.34-2.13,6.26-5.9,6.26Z"/>
    <path class="st0" d="M353.5,396.35v-21.89h14.23v3.51h-10.1v6.16h8.95v3.41h-8.95v8.82h-4.13Z"/>
    <path class="st0" d="M373.51,377.47c-1.38,0-2.52-.95-2.52-2.42s1.15-2.42,2.52-2.42,2.56.95,2.56,2.42-1.18,2.42-2.56,2.42ZM375.55,379.86v16.49h-4.03v-16.49h4.03Z"/>
    <path class="st0" d="M384.19,383.04c.85-2.29,2.85-3.57,5.38-3.57,3.01,0,5.15,1.9,5.15,5.34v11.54h-4.07v-10.42c0-1.83-.82-3.05-2.69-3.05s-3.54,1.18-3.54,4.23v9.24h-4.03v-16.49h3.31l.49,3.18Z"/>
    <path class="st0" d="M410.11,393.27c-.75,2.39-2.82,3.47-5.15,3.47-3.67,0-6.69-2.88-6.69-8.32s2.75-8.95,6.95-8.95c2.49,0,4.1,1.18,4.69,2.55v-9.34h4.03v23.67h-3.41l-.43-3.08ZM409.91,386.55c0-2.85-1.93-4.03-3.61-4.03-2.29,0-3.9,1.8-3.9,5.77,0,3.44,1.48,5.28,3.84,5.28,1.83,0,3.67-1.35,3.67-4.52v-2.49Z"/>
    <path class="st0" d="M445.53,385.4c0,7.02-3.96,11.34-10.03,11.34s-10.06-4.32-10.06-11.34,4-11.34,10.06-11.34,10.03,4.33,10.03,11.34ZM429.79,385.4c0,4.72,2,7.87,5.7,7.87s5.7-3.15,5.7-7.87-2.03-7.87-5.7-7.87-5.7,3.15-5.7,7.87Z"/>
    <path class="st0" d="M459.35,393.27c-.75,2.33-2.62,3.47-5.15,3.47-2.72,0-5.11-1.7-5.11-5.31v-11.57h4.03v10.65c0,1.9.95,3.01,2.66,3.01,1.87,0,3.38-1.31,3.38-4.36v-9.31h4.07v16.49h-3.38l-.49-3.08Z"/>
    <path class="st0" d="M477.89,395.56c-1.05.75-2.49,1.18-3.94,1.18-3.28,0-5.41-1.57-5.41-5.05v-8.82h-2.23v-3.01h2.23v-3.51l4.06-.52v4.03h4.62v3.01h-4.62v8.32c0,1.57.82,2.23,2.1,2.23.98,0,1.7-.26,2.62-.85l.56,2.98Z"/>
    <path class="st0" d="M483.39,396.61c-1.51,0-2.62-1.18-2.62-2.66s1.12-2.62,2.62-2.62,2.62,1.15,2.62,2.62-1.15,2.66-2.62,2.66Z"/>
  </g>
</svg>